<?xml version="1.0" standalone="no"?>
<!DOCTYPE svg PUBLIC "-//W3C//DTD SVG 20010904//EN"
 "http://www.w3.org/TR/2001/REC-SVG-20010904/DTD/svg10.dtd">
<svg version="1.0" xmlns="http://www.w3.org/2000/svg"
 width="243.000000pt" height="40.000000pt" viewBox="0 0 243.000000 40.000000"
 preserveAspectRatio="xMidYMid meet">

<g transform="translate(0.000000,40.000000) scale(0.100000,-0.100000)"
fill="#000000" stroke="none">
<path d="M715 312 c-13 -13 -2 -20 27 -18 41 2 48 23 8 23 -16 0 -32 -3 -35
-5z"/>
<path d="M490 255 c0 -60 -1 -61 -30 -43 -10 7 -23 9 -27 5 -13 -14 13 -42 41
-45 43 -5 56 13 56 79 0 52 -2 59 -20 59 -18 0 -20 -7 -20 -55z"/>
<path d="M1020 240 c0 -63 2 -70 20 -70 16 0 20 7 20 30 0 23 4 30 20 30 16 0
20 -7 20 -30 0 -23 4 -30 20 -30 18 0 20 7 20 70 0 63 -2 70 -20 70 -15 0 -20
-7 -20 -25 0 -18 -5 -25 -20 -25 -15 0 -20 7 -20 25 0 18 -5 25 -20 25 -18 0
-20 -7 -20 -70z"/>
<path d="M576 264 c-34 -34 -9 -94 39 -94 13 0 31 7 39 16 34 34 9 94 -39 94
-13 0 -31 -7 -39 -16z m57 -26 c6 -19 -3 -38 -18 -38 -7 0 -15 6 -18 13 -6 18
3 37 18 37 7 0 15 -6 18 -12z"/>
<path d="M699 259 c-11 -21 -10 -21 26 -15 22 4 35 4 31 -2 -3 -5 -19 -12 -37
-16 -25 -5 -30 -10 -27 -28 3 -20 9 -23 56 -24 l52 -2 0 35 c0 53 -15 73 -55
73 -25 0 -37 -6 -46 -21z m61 -49 c0 -5 -7 -10 -15 -10 -8 0 -15 5 -15 10 0 6
7 10 15 10 8 0 15 -4 15 -10z"/>
<path d="M836 264 c-20 -20 -20 -58 0 -78 34 -34 94 -9 94 39 0 30 -25 55 -55
55 -13 0 -31 -7 -39 -16z m57 -26 c6 -19 -3 -38 -18 -38 -7 0 -15 6 -18 13 -6
18 3 37 18 37 7 0 15 -6 18 -12z"/>
<path d="M1179 259 c-11 -21 -10 -21 26 -15 22 4 35 4 31 -2 -3 -5 -19 -12
-37 -16 -25 -5 -30 -10 -27 -28 3 -20 9 -23 56 -24 l52 -2 0 35 c0 53 -15 73
-55 73 -25 0 -37 -6 -46 -21z m61 -49 c0 -5 -7 -10 -15 -10 -8 0 -15 5 -15 10
0 6 7 10 15 10 8 0 15 -4 15 -10z"/>
<path d="M1310 265 c-18 -22 -5 -45 30 -51 16 -4 30 -11 30 -16 0 -5 -16 -6
-35 -2 -21 4 -35 2 -35 -4 0 -22 68 -30 88 -10 22 22 14 48 -18 55 -17 3 -33
10 -36 15 -4 6 9 6 33 2 35 -6 37 -6 24 9 -17 21 -64 22 -81 2z"/>
<path d="M1430 265 c-18 -22 -5 -45 30 -51 16 -4 30 -11 30 -16 0 -5 -16 -6
-35 -2 -21 4 -35 2 -35 -4 0 -22 68 -30 88 -10 22 22 14 48 -18 55 -17 3 -33
10 -36 15 -4 6 9 6 33 2 35 -6 37 -6 24 9 -17 21 -64 22 -81 2z"/>
</g>
</svg>
